<svg xmlns="http://www.w3.org/2000/svg" width="100" height="100">
  <path fill="#726976" fill-rule="evenodd" stroke="null" d="M49.7 2A48.3 48.3 0 0 0 2 49.8 48.2 48.2 0 0 0 50.3 98c27-.2 47.1-22.5 47.7-47.1A48.9 48.9 0 0 0 51.5 2.1M49 15.6a19.2 19.2 0 0 1 19.5 18 19.2 19.2 0 0 1-5 12 68.5 68.5 0 0 1-3.9 3.7c-4.3 4-6.2 7.4-6.2 11V64h-9v-4.5c0-2.8.6-5.2 1.8-7.3 1.2-2 3.4-4.5 6.4-7.3 1.7-1.6 3-2.7 3.6-3.5.8-.8 1.5-2 2.2-3.3.8-1.5 1.1-3 1.1-4.5 0-2.9-1-5.2-2.8-7A10.6 10.6 0 0 0 49 24c-5.4 0-9.2 3-11.2 9l-8.2-3.3c5.2-12.5 14.3-14 19.4-14m0 57c5.1.3 6.6 4 6.6 6.6-.1 3.4-2.9 6.2-6.6 6.2a6.3 6.3 0 0 1-6.3-6.3c0-3.4 2.4-6.4 6.2-6.5"/>
</svg>
